HIERARCHY
ROOT Hips
{
 OFFSET 0.000000 0.000000 0.000000
 CHANNELS 6 Xposition Yposition Zposition Yrotation Xrotation Zrotation
 JOINT Chest
 {
  OFFSET 0.000000 9.303000 0.001900
  CHANNELS 3 Yrotation Xrotation Zrotation
  JOINT Chest2
  {
   OFFSET 0.000000 9.301100 -0.003900
   CHANNELS 3 Yrotation Xrotation Zrotation
   JOINT Chest3
   {
    OFFSET 0.000000 9.262800 0.000000
    CHANNELS 3 Yrotation Xrotation Zrotation
    JOINT Chest4
    {
     OFFSET 0.000000 9.253300 0.000000
     CHANNELS 3 Yrotation Xrotation Zrotation
     JOINT Neck
     {
      OFFSET 0.000000 14.010300 0.000000
      CHANNELS 3 Yrotation Xrotation Zrotation
      JOINT Head
      {
       OFFSET 0.000000 8.657600 -0.008300
       CHANNELS 3 Yrotation Xrotation Zrotation
       End Site
       {
        OFFSET 0.000000 16.540200 -0.004400
       }
      }
     }
     JOINT RightCollar
     {
      OFFSET -2.834100 9.267700 0.000000
      CHANNELS 3 Yrotation Xrotation Zrotation
      JOINT RightShoulder
      {
       OFFSET -13.135200 0.000000 0.000000
       CHANNELS 3 Yrotation Xrotation Zrotation
       JOINT RightElbow
       {
        OFFSET 0.000000 -28.893500 0.000000
        CHANNELS 3 Yrotation Xrotation Zrotation
        JOINT RightWrist
        {
         OFFSET 0.000000 -23.344000 0.000000
         CHANNELS 3 Yrotation Xrotation Zrotation
         End Site
         {
          OFFSET 0.000000 -17.223000 0.000000
         }
        }
       }
      }
     }
     JOINT LeftCollar
     {
      OFFSET 2.834100 9.267700 0.000000
      CHANNELS 3 Yrotation Xrotation Zrotation
      JOINT LeftShoulder
      {
       OFFSET 13.135200 0.000000 0.000000
       CHANNELS 3 Yrotation Xrotation Zrotation
       JOINT LeftElbow
       {
        OFFSET 0.000000 -28.893500 0.000000
        CHANNELS 3 Yrotation Xrotation Zrotation
        JOINT LeftWrist
        {
         OFFSET 0.000000 -23.344000 0.000000
         CHANNELS 3 Yrotation Xrotation Zrotation
         End Site
         {
          OFFSET 0.000000 -17.223000 0.000000
         }
        }
       }
      }
     }
    }
   }
  }
 }
 JOINT RightHip
 {
  OFFSET -7.547200 -0.009500 -0.001000
  CHANNELS 3 Yrotation Xrotation Zrotation
  JOINT RightKnee
  {
   OFFSET 0.000000 -39.762800 0.000900
   CHANNELS 3 Yrotation Xrotation Zrotation
   JOINT RightAnkle
   {
    OFFSET 0.000000 -38.588200 0.001600
    CHANNELS 3 Yrotation Xrotation Zrotation
    JOINT RightToe
    {
     OFFSET 0.000000 -4.693300 10.419700
     CHANNELS 3 Yrotation Xrotation Zrotation
     End Site
     {
      OFFSET 0.000000 -1.379900 5.669300
     }
    }
   }
  }
 }
 JOINT LeftHip
 {
  OFFSET 7.547200 -0.009500 -0.001000
  CHANNELS 3 Yrotation Xrotation Zrotation
  JOINT LeftKnee
  {
   OFFSET 0.000000 -39.762800 0.000900
   CHANNELS 3 Yrotation Xrotation Zrotation
   JOINT LeftAnkle
   {
    OFFSET 0.000000 -38.588200 0.001600
    CHANNELS 3 Yrotation Xrotation Zrotation
    JOINT LeftToe
    {
     OFFSET 0.000000 -4.693300 10.419700
     CHANNELS 3 Yrotation Xrotation Zrotation
     End Site
     {
      OFFSET 0.000000 -1.379900 5.669300
     }
    }
   }
  }
 }
}
MOTION
Frames: 8
Frame Time: 0.008333
2.593594 45.601170 11.889889 162.355663 -25.616538 0.856165 2.763313 14.788012 2.569647 0.244210 1.404707 0.224867 0.413894 2.361133 0.381538 2.588049 13.306079 2.420348 4.926121 17.996695 -0.849654 5.581385 -6.594014 -2.126991 15.822990 1.131568 -10.161492 -5.173837 -40.472598 -25.364043 -143.541235 -67.135382 166.565849 -18.499642 -18.518074 -8.205351 -18.038053 -8.306904 -3.635187 9.800240 -40.932801 16.591023 97.117431 -58.578070 -121.523189 13.730299 -9.636519 -6.052085 -13.963002 -62.868295 3.690428 -157.886977 86.556783 -155.755764 -5.442344 -9.083469 -5.278546 -0.020352 -0.027902 -0.242016 -10.812941 -58.868637 30.055419 91.427531 78.085753 89.579732 -8.836645 -9.721716 -4.379333 0.361328 1.762257 0.373101
2.571583 45.596063 11.918841 162.372549 -25.919922 0.837319 2.853231 14.962404 2.606085 0.251419 1.431462 0.227874 0.425721 2.404327 0.386543 2.634216 13.413039 2.432955 4.826766 17.938767 -0.840410 5.403678 -6.655790 -2.073248 16.024608 1.193091 -10.012511 -4.836311 -40.687741 -26.040629 -145.032300 -67.992191 166.786303 -18.549874 -18.243453 -8.289334 -18.296936 -8.391709 -3.671334 8.979597 -41.113316 17.851953 96.205094 -58.615711 -119.308100 13.851442 -9.535677 -5.852082 -13.916093 -62.574993 3.604104 -157.683537 86.600138 -155.593682 -5.454641 -9.040641 -5.234996 -0.025673 -0.019349 -0.226890 -10.752809 -58.634905 29.865818 91.780383 78.226367 90.030302 -8.526984 -10.203254 -4.417593 0.267035 1.869865 0.301124
2.547869 45.589878 11.953379 162.365440 -26.182136 0.817650 2.955223 15.121689 2.645144 0.258948 1.459871 0.230831 0.438195 2.450064 0.391373 2.681518 13.525485 2.443818 4.721447 17.853300 -0.828046 5.220437 -6.755269 -2.008316 16.192445 1.196081 -9.905779 -4.383520 -40.861131 -26.802646 -146.213178 -69.007855 166.681450 -18.588547 -17.906148 -8.330789 -18.520484 -8.519895 -3.659248 8.382703 -41.258530 18.975795 94.686384 -58.496269 -116.747761 13.946057 -9.301801 -5.720286 -13.884287 -62.323444 3.572702 -157.461315 86.653161 -155.414105 -5.493496 -8.975208 -5.200520 0.002163 -0.020232 -0.200583 -10.686764 -58.450794 29.717230 92.167693 78.351979 90.504934 -8.255541 -10.675569 -4.408252 0.179553 1.926504 0.216070
2.522556 45.584869 11.988988 162.360615 -26.430695 0.797386 3.038875 15.294703 2.676600 0.266658 1.489028 0.233518 0.450964 2.496977 0.395745 2.728671 13.639859 2.451651 4.603847 17.742531 -0.813080 5.025398 -6.893387 -1.935963 16.332237 1.139740 -9.842901 -3.840115 -41.002434 -27.623068 -146.993936 -70.162775 166.203648 -18.625069 -17.528318 -8.327084 -18.697137 -8.684228 -3.592925 8.035953 -41.410266 19.901463 92.624731 -58.207150 -113.929214 14.022586 -8.986556 -5.618972 -13.825542 -62.083312 3.509652 -157.073859 86.707142 -155.045298 -5.509068 -8.913230 -5.188333 -0.003766 -0.019298 -0.165437 -10.630849 -58.280308 29.594128 92.567349 78.455667 90.966009 -8.031813 -11.116957 -4.356957 0.105326 1.928668 0.127538
2.497700 45.580863 12.027286 162.315932 -26.655581 0.783822 3.120397 15.488012 2.719871 0.270572 1.503717 0.234767 0.457397 2.520647 0.397798 2.801993 13.779199 2.447189 4.447838 17.608810 -0.805048 4.849216 -7.061538 -1.857075 16.438718 1.029726 -9.832200 -3.219237 -41.125522 -28.478980 -147.252218 -71.407300 165.263516 -18.636999 -17.123749 -8.310475 -18.840961 -8.888099 -3.490941 7.925559 -41.596186 20.641445 90.124473 -57.730049 -110.947740 14.067365 -8.636834 -5.492176 -13.760625 -61.863708 3.482702 -156.659476 86.771106 -154.653675 -5.506251 -8.841231 -5.156474 0.000669 -0.016892 -0.151623 -10.571895 -58.121389 29.523831 92.941545 78.541187 91.373215 -7.841753 -11.492531 -4.275121 0.033232 1.858912 0.040793
2.470360 45.576989 12.070145 162.265811 -26.835711 0.778703 3.201509 15.644429 2.754572 0.274431 1.518570 0.235873 0.491289 2.595281 0.388937 2.823764 13.881771 2.456288 4.274345 17.459254 -0.781259 4.682892 -7.244013 -1.793854 16.515145 0.879257 -9.887528 -2.543383 -41.244000 -29.347396 -146.802001 -72.680694 163.691504 -18.608366 -16.705249 -8.310033 -18.949709 -9.118935 -3.356835 7.995271 -41.834866 21.225194 87.338265 -57.045266 -107.909116 14.085912 -8.283356 -5.291416 -13.678449 -61.694853 3.469085 -155.932434 86.829701 -153.965243 -5.494758 -8.752920 -5.082802 0.010107 -0.020802 -0.126465 -10.517187 -57.984667 29.483727 93.232133 78.625375 91.663358 -7.712270 -11.871494 -4.185895 0.001623 1.797782 -0.017602
2.437327 45.571475 12.121195 162.226778 -26.937811 0.789189 3.265800 15.730068 2.754659 0.281972 1.547686 0.238171 0.490131 2.674284 0.392828 2.842460 13.974809 2.463967 4.091546 17.305092 -0.752527 4.523280 -7.432370 -1.736352 16.582154 0.695841 -10.011975 -1.840747 -41.355934 -30.227152 -145.411513 -73.930124 161.250798 -18.558327 -16.298469 -8.326515 -19.032301 -9.365390 -3.193649 8.136713 -42.121771 21.725172 84.449276 -56.146332 -104.901463 14.102179 -7.951706 -4.978419 -13.574211 -61.610391 3.431454 -155.208100 86.899113 -153.259814 -5.520549 -8.658924 -5.033176 0.017046 -0.018965 -0.116301 -10.440934 -57.933973 29.423932 93.459307 78.706195 91.887296 -7.614861 -12.219983 -4.096156 -0.014058 1.732098 -0.051737
2.404817 45.569468 12.172441 162.194634 -27.025034 0.797691 3.303872 15.823797 2.751109 0.274428 1.623476 0.229241 0.492621 2.681105 0.410888 2.863179 14.081648 2.469212 3.928090 17.146690 -0.724774 4.337317 -7.613331 -1.667682 16.658452 0.478767 -10.196692 -1.123337 -41.453237 -31.140821 -142.799463 -75.101157 157.645350 -18.503587 -15.928129 -8.363860 -19.100437 -9.627876 -3.004202 8.199717 -42.432356 22.225803 81.628121 -55.054922 -101.967268 14.133160 -7.673156 -4.535214 -13.474667 -61.535787 3.396401 -154.663296 86.977835 -152.735823 -5.550177 -8.564902 -4.978318 0.024813 -0.016469 -0.108781 -10.332098 -57.907308 29.341040 93.592812 78.780853 92.030853 -7.532607 -12.488362 -4.012975 -0.034540 1.624025 -0.068307
